<svg id="Ebene_1" data-name="Ebene 1" xmlns="http://www.w3.org/2000/svg" viewBox="0 0 1024 1024"><g id="logo"><path d="M789.94,195.31H678.76a11,11,0,0,0-11,11V250.9H578.54V206.27a11,11,0,0,0-10.95-11H456.41a11,11,0,0,0-11,11V250.9H356.19V206.27a11,11,0,0,0-10.95-11H234.06a11,11,0,0,0-10.95,11V484.2a10.94,10.94,0,0,0,6.64,10.07l121,51.86L279.06,814.91a11,11,0,0,0,7.77,13.4,10.59,10.59,0,0,0,2.83.38,11,11,0,0,0,10.57-8.14l74.12-277.93a11,11,0,0,0-6.27-12.9L245,477V439.57H438.64a74.18,74.18,0,1,0,0-21.91H245V217.22h89.26v44.63a11,11,0,0,0,11,11H456.41a11,11,0,0,0,11-11V217.22h89.26v44.63a11,11,0,0,0,11,11H678.76a11,11,0,0,0,11-11V217.22H779V477L655.92,529.72a11,11,0,0,0-6.27,12.89l53.28,199.81H585.36a74.18,74.18,0,1,0,0,21.91H708.77l15,56.22a11,11,0,0,0,10.58,8.14,10.59,10.59,0,0,0,2.83-.38,10.94,10.94,0,0,0,7.76-13.4L673.26,546.13l121-51.86a10.94,10.94,0,0,0,6.64-10.07V206.27A11,11,0,0,0,789.94,195.31ZM512,376.35a52.27,52.27,0,1,1-52.26,52.27A52.32,52.32,0,0,1,512,376.35Zm0,429.29a52.27,52.27,0,1,1,52.26-52.26A52.31,52.31,0,0,1,512,805.64Z"/></g></svg>